<svg xmlns="http://www.w3.org/2000/svg" version="1.1" xmlns:xlink="http://www.w3.org/1999/xlink" xmlns:svgjs="http://svgjs.com/svgjs" width="1440" height="560" preserveAspectRatio="none" viewBox="0 0 1440 560"><g mask="url(&quot;#SvgjsMask1000&quot;)" fill="none"><rect width="1440" height="560" x="0" y="0" fill="#0e2a47"></rect><path d="M722.19 639.76C841.27 585.75 789.02 208.99 1016.41 207.35 1243.79 205.71 1448.44 416.91 1604.84 420.15" stroke="rgba(51,121,194,0.58)" stroke-width="2"></path><path d="M433.41 576.88C607.37 568.61 726.19 274.94 1057.91 268.2 1389.63 261.46 1522.41 129.05 1682.41 128.2" stroke="rgba(51,121,194,0.58)" stroke-width="2"></path><path d="M478.33 564.4C596.63 550.32 664.55 287.2 864.64 285.36 1064.73 283.52 1057.8 355.36 1250.95 355.36 1444.11 355.36 1539.11 285.64 1637.26 285.36" stroke="rgba(51,121,194,0.58)" stroke-width="2"></path><path d="M27.02 628.34C181.03 601.59 249.44 225.51 500.95 220.51 752.47 215.51 737.92 290.51 974.89 290.51 1211.85 290.51 1329.05 220.7 1448.82 220.51" stroke="rgba(51,121,194,0.58)" stroke-width="2"></path><path d="M263.8 587.41C376.53 584.9 474.06 430.4 686.57 430.29 899.07 430.18 897.95 500.29 1109.33 500.29 1320.72 500.29 1424.97 430.53 1532.1 430.29" stroke="rgba(51,121,194,0.58)" stroke-width="2"></path></g><defs><mask id="SvgjsMask1000"><rect width="1440" height="560" fill="#ffffff"></rect></mask></defs></svg>