<svg xmlns="http://www.w3.org/2000/svg" version="1.1" xmlns:xlink="http://www.w3.org/1999/xlink" xmlns:svgjs="http://svgjs.com/svgjs" width="1440" height="560" preserveAspectRatio="none" viewBox="0 0 1440 560"><g mask="url(&quot;#SvgjsMask1017&quot;)" fill="none"><rect width="1440" height="560" x="0" y="0" fill="#0e2a47"></rect><path d="M100 77L99 442" stroke-width="8" stroke="url(#SvgjsLinearGradient1018)" stroke-linecap="round" class="Down"></path><path d="M1236 130L1235 350" stroke-width="8" stroke="url(#SvgjsLinearGradient1019)" stroke-linecap="round" class="Up"></path><path d="M1436 392L1435 537" stroke-width="8" stroke="url(#SvgjsLinearGradient1018)" stroke-linecap="round" class="Down"></path><path d="M83 158L82 535" stroke-width="8" stroke="url(#SvgjsLinearGradient1018)" stroke-linecap="round" class="Down"></path><path d="M720 480L719 713" stroke-width="10" stroke="url(#SvgjsLinearGradient1018)" stroke-linecap="round" class="Down"></path><path d="M636 470L635 114" stroke-width="10" stroke="url(#SvgjsLinearGradient1018)" stroke-linecap="round" class="Down"></path><path d="M841 35L840 -336" stroke-width="10" stroke="url(#SvgjsLinearGradient1019)" stroke-linecap="round" class="Up"></path><path d="M1391 216L1390 -104" stroke-width="10" stroke="url(#SvgjsLinearGradient1018)" stroke-linecap="round" class="Down"></path><path d="M171 295L170 522" stroke-width="10" stroke="url(#SvgjsLinearGradient1019)" stroke-linecap="round" class="Up"></path><path d="M304 306L303 465" stroke-width="8" stroke="url(#SvgjsLinearGradient1019)" stroke-linecap="round" class="Up"></path><path d="M1037 155L1036 496" stroke-width="10" stroke="url(#SvgjsLinearGradient1019)" stroke-linecap="round" class="Up"></path><path d="M904 9L903 -316" stroke-width="10" stroke="url(#SvgjsLinearGradient1018)" stroke-linecap="round" class="Down"></path><path d="M1172 243L1171 646" stroke-width="10" stroke="url(#SvgjsLinearGradient1019)" stroke-linecap="round" class="Up"></path><path d="M567 143L566 547" stroke-width="10" stroke="url(#SvgjsLinearGradient1018)" stroke-linecap="round" class="Down"></path><path d="M409 394L408 222" stroke-width="10" stroke="url(#SvgjsLinearGradient1019)" stroke-linecap="round" class="Up"></path><path d="M1407 181L1406 -84" stroke-width="8" stroke="url(#SvgjsLinearGradient1018)" stroke-linecap="round" class="Down"></path><path d="M1048 288L1047 698" stroke-width="10" stroke="url(#SvgjsLinearGradient1018)" stroke-linecap="round" class="Down"></path><path d="M1312 74L1311 401" stroke-width="6" stroke="url(#SvgjsLinearGradient1019)" stroke-linecap="round" class="Up"></path><path d="M545 331L544 610" stroke-width="8" stroke="url(#SvgjsLinearGradient1018)" stroke-linecap="round" class="Down"></path><path d="M1353 367L1352 511" stroke-width="10" stroke="url(#SvgjsLinearGradient1019)" stroke-linecap="round" class="Up"></path><path d="M745 28L744 312" stroke-width="8" stroke="url(#SvgjsLinearGradient1019)" stroke-linecap="round" class="Up"></path><path d="M1242 303L1241 521" stroke-width="8" stroke="url(#SvgjsLinearGradient1019)" stroke-linecap="round" class="Up"></path><path d="M139 66L138 286" stroke-width="8" stroke="url(#SvgjsLinearGradient1018)" stroke-linecap="round" class="Down"></path><path d="M598 236L597 601" stroke-width="10" stroke="url(#SvgjsLinearGradient1019)" stroke-linecap="round" class="Up"></path><path d="M762 471L761 829" stroke-width="6" stroke="url(#SvgjsLinearGradient1019)" stroke-linecap="round" class="Up"></path><path d="M316 364L315 630" stroke-width="6" stroke="url(#SvgjsLinearGradient1018)" stroke-linecap="round" class="Down"></path><path d="M922 150L921 569" stroke-width="10" stroke="url(#SvgjsLinearGradient1018)" stroke-linecap="round" class="Down"></path><path d="M816 58L815 466" stroke-width="8" stroke="url(#SvgjsLinearGradient1018)" stroke-linecap="round" class="Down"></path><path d="M739 102L738 -135" stroke-width="6" stroke="url(#SvgjsLinearGradient1018)" stroke-linecap="round" class="Down"></path><path d="M669 228L668 -104" stroke-width="8" stroke="url(#SvgjsLinearGradient1018)" stroke-linecap="round" class="Down"></path><path d="M908 276L907 505" stroke-width="6" stroke="url(#SvgjsLinearGradient1018)" stroke-linecap="round" class="Down"></path><path d="M726 195L725 -124" stroke-width="6" stroke="url(#SvgjsLinearGradient1018)" stroke-linecap="round" class="Down"></path><path d="M1430 248L1429 90" stroke-width="8" stroke="url(#SvgjsLinearGradient1018)" stroke-linecap="round" class="Down"></path><path d="M531 505L530 171" stroke-width="10" stroke="url(#SvgjsLinearGradient1018)" stroke-linecap="round" class="Down"></path><path d="M863 436L862 119" stroke-width="6" stroke="url(#SvgjsLinearGradient1018)" stroke-linecap="round" class="Down"></path><path d="M1207 111L1206 469" stroke-width="10" stroke="url(#SvgjsLinearGradient1018)" stroke-linecap="round" class="Down"></path></g><defs><mask id="SvgjsMask1017"><rect width="1440" height="560" fill="#ffffff"></rect></mask><linearGradient x1="0%" y1="0%" x2="0%" y2="100%" id="SvgjsLinearGradient1018"><stop stop-color="rgba(28, 83, 142, 0)" offset="0"></stop><stop stop-color="#1c538e" offset="1"></stop></linearGradient><linearGradient x1="0%" y1="100%" x2="0%" y2="0%" id="SvgjsLinearGradient1019"><stop stop-color="rgba(28, 83, 142, 0)" offset="0"></stop><stop stop-color="#1c538e" offset="1"></stop></linearGradient></defs></svg>