<svg xmlns="http://www.w3.org/2000/svg" version="1.1" xmlns:xlink="http://www.w3.org/1999/xlink" xmlns:svgjs="http://svgjs.com/svgjs" width="1440" height="560" preserveAspectRatio="none" viewBox="0 0 1440 560"><g mask="url(&quot;#SvgjsMask1000&quot;)" fill="none"><rect width="1440" height="560" x="0" y="0" fill="#0e2a47"></rect><circle r="46.666666666666664" cx="202.98" cy="384.19" stroke="#037b0b" stroke-width="1"></circle><path d="M956.69 304.11L944.39 307.67 938.21 296.46 925.91 300.02 919.73 288.8 907.43 292.37 901.25 281.15" stroke="#e73635" stroke-width="1" stroke-dasharray="2, 2"></path><path d="M350.85 151.88 L430.43 148.48000000000002L360.88987019232667 120.42987019232669z" stroke="#d3b714" stroke-width="1.87" stroke-dasharray="2, 2"></path><rect width="132.96" height="132.96" clip-path="url(&quot;#SvgjsClipPath1001&quot;)" x="1196.92" y="288.32" fill="url(#SvgjsPattern1002)" transform="rotate(238.84, 1263.4, 354.8)"></rect><rect width="216" height="216" clip-path="url(&quot;#SvgjsClipPath1003&quot;)" x="664.75" y="152.29" fill="url(#SvgjsPattern1004)" transform="rotate(330.78, 772.75, 260.29)"></rect><path d="M1050.63 263.89L1037.95 265.72 1033.39 253.76 1020.71 255.58 1016.15 243.62 1003.47 245.44 998.91 233.48" stroke="#e73635" stroke-width="1" stroke-dasharray="2, 2"></path><path d="M791.67 359.5a5.6 5.6 0 1 0 6.23 9.31 5.6 5.6 0 1 0-6.23-9.31zM800.57 372.8a5.6 5.6 0 1 0 6.23 9.3 5.6 5.6 0 1 0-6.23-9.3zM809.47 386.09a5.6 5.6 0 1 0 6.23 9.31 5.6 5.6 0 1 0-6.23-9.31zM818.37 399.39a5.6 5.6 0 1 0 6.24 9.3 5.6 5.6 0 1 0-6.24-9.3zM760.57 341.82a5.6 5.6 0 1 0 6.23 9.3 5.6 5.6 0 1 0-6.23-9.3zM769.47 355.11a5.6 5.6 0 1 0 6.23 9.31 5.6 5.6 0 1 0-6.23-9.31zM778.37 368.41a5.6 5.6 0 1 0 6.23 9.3 5.6 5.6 0 1 0-6.23-9.3zM787.27 381.7a5.6 5.6 0 1 0 6.24 9.31 5.6 5.6 0 1 0-6.24-9.31zM729.46 324.13a5.6 5.6 0 1 0 6.24 9.31 5.6 5.6 0 1 0-6.24-9.31zM738.37 337.43a5.6 5.6 0 1 0 6.23 9.3 5.6 5.6 0 1 0-6.23-9.3zM747.27 350.72a5.6 5.6 0 1 0 6.23 9.31 5.6 5.6 0 1 0-6.23-9.31zM756.17 364.02a5.6 5.6 0 1 0 6.24 9.3 5.6 5.6 0 1 0-6.24-9.3z" stroke="#d3b714" stroke-width="2.16" stroke-dasharray="3, 3"></path><rect width="108" height="108" clip-path="url(&quot;#SvgjsClipPath1005&quot;)" x="1311.48" y="-16.22" fill="url(#SvgjsPattern1006)" transform="rotate(350.08, 1365.48, 37.78)"></rect><rect width="168" height="168" clip-path="url(&quot;#SvgjsClipPath1007&quot;)" x="92.72" y="35.38" fill="url(#SvgjsPattern1008)" transform="rotate(287.25, 176.72, 119.38)"></rect><path d="M673.66 376.53999999999996 L546.13 316.54999999999995L696.2230722070589 260.2169277929411z" fill="#d3b714"></path><path d="M1045.96 284.06 L1133.33 297.15999999999997L1123.718646602428 256.536353397572z" stroke="#d3b714" stroke-width="1" stroke-dasharray="3, 3"></path><path d="M1246.51 167.03L1259.3 167.66 1261.5 180.28 1274.29 180.91 1276.48 193.52 1289.27 194.15 1291.47 206.77M1241.21 173.03L1254 173.66 1256.2 186.27 1268.99 186.9 1271.18 199.52 1283.98 200.15 1286.17 212.76" stroke="#037b0b" stroke-width="2.68"></path></g><defs><mask id="SvgjsMask1000"><rect width="1440" height="560" fill="#ffffff"></rect></mask><pattern x="0" y="0" width="11.08" height="11.08" patternUnits="userSpaceOnUse" id="SvgjsPattern1002"><path d="M5.54 1L5.54 10.08M1 5.54L10.08 5.54" stroke="#e73635" fill="none" stroke-width="1.41"></path></pattern><clipPath id="SvgjsClipPath1001"><circle r="33.24" cx="1263.4" cy="354.8"></circle></clipPath><pattern x="0" y="0" width="216" height="6" patternUnits="userSpaceOnUse" id="SvgjsPattern1004"><rect width="216" height="3" x="0" y="0" fill="#e73635"></rect><rect width="216" height="3" x="0" y="3" fill="rgba(0, 0, 0, 0)"></rect></pattern><clipPath id="SvgjsClipPath1003"><circle r="54" cx="772.75" cy="260.29"></circle></clipPath><pattern x="0" y="0" width="6" height="6" patternUnits="userSpaceOnUse" id="SvgjsPattern1006"><path d="M3 1L3 5M1 3L5 3" stroke="#e73635" fill="none" stroke-width="1"></path></pattern><clipPath id="SvgjsClipPath1005"><circle r="27" cx="1365.48" cy="37.78"></circle></clipPath><pattern x="0" y="0" width="6" height="6" patternUnits="userSpaceOnUse" id="SvgjsPattern1008"><path d="M0 6L3 0L6 6" stroke="#d3b714" fill="none"></path></pattern><clipPath id="SvgjsClipPath1007"><circle r="42" cx="176.72" cy="119.38"></circle></clipPath></defs></svg>