<svg xmlns="http://www.w3.org/2000/svg" version="1.1" xmlns:xlink="http://www.w3.org/1999/xlink" xmlns:svgjs="http://svgjs.com/svgjs" width="1440" height="560" preserveAspectRatio="none" viewBox="0 0 1440 560"><g mask="url(&quot;#SvgjsMask1000&quot;)" fill="none"><rect width="1440" height="560" x="0" y="0" fill="#0e2a47"></rect><g transform="translate(0, 0)" stroke-linecap="round"><path d="M260 245.26 L260 314.74" stroke-width="15" stroke="#dd1133"></path><path d="M280 159.03 L280 400.97" stroke-width="15" stroke="#3a7cc3"></path><path d="M300 183.04 L300 376.96" stroke-width="15" stroke="#dd1133"></path><path d="M320 170.56 L320 389.44" stroke-width="15" stroke="#3a7cc3"></path><path d="M340 244.87 L340 315.13" stroke-width="15" stroke="#3a7cc3"></path><path d="M360 188.79 L360 371.21" stroke-width="15" stroke="#dd1133"></path><path d="M380 235.06 L380 324.94" stroke-width="15" stroke="#dd1133"></path><path d="M400 152.11 L400 407.89" stroke-width="15" stroke="#dd1133"></path><path d="M420 234.65 L420 325.36" stroke-width="15" stroke="#dd1133"></path><path d="M440 154.38 L440 405.63" stroke-width="15" stroke="#3a7cc3"></path><path d="M460 225.85 L460 334.14" stroke-width="15" stroke="#dd1133"></path><path d="M480 231.91 L480 328.09" stroke-width="15" stroke="#3a7cc3"></path><path d="M500 209.61 L500 350.39" stroke-width="15" stroke="#dd1133"></path><path d="M520 223.78 L520 336.23" stroke-width="15" stroke="#3a7cc3"></path><path d="M540 160.49 L540 399.51" stroke-width="15" stroke="#dd1133"></path><path d="M560 230.57 L560 329.43" stroke-width="15" stroke="#3a7cc3"></path><path d="M580 119.62 L580 440.38" stroke-width="15" stroke="#3a7cc3"></path><path d="M600 157.45 L600 402.55" stroke-width="15" stroke="#3a7cc3"></path><path d="M620 133.44 L620 426.56" stroke-width="15" stroke="#dd1133"></path><path d="M640 131.82 L640 428.18" stroke-width="15" stroke="#3a7cc3"></path><path d="M660 154.69 L660 405.31" stroke-width="15" stroke="#dd1133"></path><path d="M680 179.44 L680 380.56" stroke-width="15" stroke="#3a7cc3"></path><path d="M700 201.65 L700 358.35" stroke-width="15" stroke="#dd1133"></path><path d="M720 242.31 L720 317.69" stroke-width="15" stroke="#3a7cc3"></path><path d="M740 199.13 L740 360.88" stroke-width="15" stroke="#3a7cc3"></path><path d="M760 118.29 L760 441.71" stroke-width="15" stroke="#3a7cc3"></path><path d="M780 112.62 L780 447.38" stroke-width="15" stroke="#dd1133"></path><path d="M800 147.35 L800 412.64" stroke-width="15" stroke="#3a7cc3"></path><path d="M820 221.66 L820 338.34" stroke-width="15" stroke="#dd1133"></path><path d="M840 113.5 L840 446.5" stroke-width="15" stroke="#3a7cc3"></path><path d="M860 252.81 L860 307.19" stroke-width="15" stroke="#3a7cc3"></path><path d="M880 187.84 L880 372.15" stroke-width="15" stroke="#dd1133"></path><path d="M900 231.06 L900 328.94" stroke-width="15" stroke="#dd1133"></path><path d="M920 246.04 L920 313.96" stroke-width="15" stroke="#dd1133"></path><path d="M940 153.82 L940 406.18" stroke-width="15" stroke="#3a7cc3"></path><path d="M960 145.4 L960 414.6" stroke-width="15" stroke="#3a7cc3"></path><path d="M980 135.72 L980 424.28" stroke-width="15" stroke="#dd1133"></path><path d="M1000 240.52 L1000 319.48" stroke-width="15" stroke="#dd1133"></path><path d="M1020 149.54 L1020 410.46" stroke-width="15" stroke="#dd1133"></path><path d="M1040 145.34 L1040 414.65" stroke-width="15" stroke="#dd1133"></path><path d="M1060 163.19 L1060 396.81" stroke-width="15" stroke="#3a7cc3"></path><path d="M1080 257.98 L1080 302.02" stroke-width="15" stroke="#3a7cc3"></path><path d="M1100 173.69 L1100 386.31" stroke-width="15" stroke="#3a7cc3"></path><path d="M1120 179.46 L1120 380.54" stroke-width="15" stroke="#dd1133"></path><path d="M1140 145.28 L1140 414.73" stroke-width="15" stroke="#dd1133"></path><path d="M1160 164.94 L1160 395.06" stroke-width="15" stroke="#3a7cc3"></path><path d="M1180 232.55 L1180 327.45" stroke-width="15" stroke="#dd1133"></path></g></g><defs><mask id="SvgjsMask1000"><rect width="1440" height="560" fill="#ffffff"></rect></mask></defs></svg>